<?xml version="1.0" encoding="UTF-8" standalone="no"?>
<!-- Created with Inkscape (http://www.inkscape.org/) -->

<svg
   xmlns:dc="http://purl.org/dc/elements/1.1/"
   xmlns:cc="http://creativecommons.org/ns#"
   xmlns:rdf="http://www.w3.org/1999/02/22-rdf-syntax-ns#"
   xmlns:svg="http://www.w3.org/2000/svg"
   xmlns="http://www.w3.org/2000/svg"
   xmlns:sodipodi="http://sodipodi.sourceforge.net/DTD/sodipodi-0.dtd"
   xmlns:inkscape="http://www.inkscape.org/namespaces/inkscape"
   width="63.661201mm"
   height="24.438639mm"
   viewBox="0 0 225.57119 86.593601"
   id="svg2"
   version="1.1"
   inkscape:version="0.91 r13725"
   sodipodi:docname="logo.svg">
  <defs
     id="defs4" />
  <sodipodi:namedview
     id="base"
     pagecolor="#ffffff"
     bordercolor="#666666"
     borderopacity="1.0"
     inkscape:pageopacity="0.0"
     inkscape:pageshadow="2"
     inkscape:zoom="1.979899"
     inkscape:cx="163.44743"
     inkscape:cy="88.945673"
     inkscape:document-units="px"
     inkscape:current-layer="text4282"
     showgrid="false"
     fit-margin-top="0"
     fit-margin-left="0"
     fit-margin-right="0"
     fit-margin-bottom="0"
     inkscape:window-width="1317"
     inkscape:window-height="744"
     inkscape:window-x="49"
     inkscape:window-y="24"
     inkscape:window-maximized="1" />
  <metadata
     id="metadata7">
    <rdf:RDF>
      <cc:Work
         rdf:about="">
        <dc:format>image/svg+xml</dc:format>
        <dc:type
           rdf:resource="http://purl.org/dc/dcmitype/StillImage" />
        <dc:title></dc:title>
      </cc:Work>
    </rdf:RDF>
  </metadata>
  <g
     inkscape:label="Layer 1"
     inkscape:groupmode="layer"
     id="layer1"
     transform="translate(504.44265,-405.53649)">
    <text
       xml:space="preserve"
       style="font-style:normal;font-weight:normal;font-size:40px;line-height:125%;font-family:'EB Garamond';letter-spacing:0px;word-spacing:0px;fill:#000000;fill-opacity:1;stroke:none;stroke-width:1px;stroke-linecap:butt;stroke-linejoin:miter;stroke-opacity:1;-inkscape-font-specification:'EB Garamond';font-stretch:normal;font-variant:normal;"
       x="-637.2998"
       y="204.98723"
       id="text4274"
       sodipodi:linespacing="125%"><tspan
         sodipodi:role="line"
         id="tspan4276"
         x="-637.2998"
         y="204.98723"
         style="font-style:normal;font-variant:normal;font-weight:normal;font-stretch:normal;font-family:'EB Garamond';-inkscape-font-specification:'EB Garamond';" /></text>
    <text
       xml:space="preserve"
       style="font-style:normal;font-weight:normal;font-size:40px;line-height:125%;font-family:'EB Garamond';letter-spacing:0px;word-spacing:0px;fill:#000000;fill-opacity:1;stroke:none;stroke-width:1px;stroke-linecap:butt;stroke-linejoin:miter;stroke-opacity:1;-inkscape-font-specification:'EB Garamond';font-stretch:normal;font-variant:normal;"
       x="-612.2998"
       y="209.98723"
       id="text4278"
       sodipodi:linespacing="125%"><tspan
         sodipodi:role="line"
         id="tspan4280"
         x="-612.2998"
         y="209.98723" /></text>
    <g
       style="font-style:normal;font-variant:normal;font-weight:500;font-stretch:normal;font-size:40px;line-height:125%;font-family:'Century Schoolbook L';-inkscape-font-specification:'Century Schoolbook L Medium';letter-spacing:-2.5px;word-spacing:0px;fill:#008000;fill-opacity:1;stroke:none;stroke-width:1px;stroke-linecap:butt;stroke-linejoin:miter;stroke-opacity:1"
       id="text4282">
      <path
         d="m -468.92502,426.00828 -33.1,0 -0.75,13.55 2.65,0 c 0.65,-3.7 1.35,-5.65 2.55,-7.4 1.6,-2.4 3.5,-3.55 5.8,-3.55 1.5,0 1.8,0.35 1.8,2.05 l 0,24.25 c 0,3.15 0,3.35 -0.35,3.75 -0.45,0.55 -1.5,0.75 -4.15,0.75 l -1.1,0 0,2.7 20.2,0 0,-2.7 -1.1,0 c -2.65,0 -3.7,-0.2 -4.15,-0.75 -0.35,-0.4 -0.35,-0.6 -0.35,-3.75 l 0,-24.25 c 0,-1.7 0.3,-2.05 1.8,-2.05 2.15,0 3.8,0.9 5.4,2.95 1.4,1.85 2.2,3.95 2.95,8 l 2.65,0 -0.75,-13.55 z"
         style="font-style:normal;font-variant:normal;font-weight:bold;font-stretch:normal;font-size:50px;font-family:'Century Schoolbook L';-inkscape-font-specification:'Century Schoolbook L Bold';letter-spacing:-2.5px;fill:#008000"
         id="path4306" />
      <path
         d="m -442.89221,450.70828 0,-0.8 c 0,-7.45 -4.65,-12.2 -11.95,-12.2 -4,0 -7.35,1.3 -9.85,3.85 -2.25,2.35 -3.6,5.65 -3.6,8.95 0,3.55 1.55,7.15 4.05,9.3 2.3,1.95 5.65,3.05 9.45,3.05 5.85,0 9.7,-2.6 11.9,-7.95 l -2.45,-1 c -2,3.9 -4.25,5.55 -7.5,5.55 -2.3,0 -4.3,-1.1 -5.55,-3 -0.85,-1.35 -1.2,-2.9 -1.25,-5.75 l 16.75,0 z m -16.7,-2.75 c 0,-4.75 1.9,-7.65 4.9,-7.65 2.55,0 3.95,2.1 3.95,6.05 0,1.2 -0.35,1.6 -1.35,1.6 l -7.5,0 z"
         style="font-style:normal;font-variant:normal;font-weight:bold;font-stretch:normal;font-size:50px;font-family:'Century Schoolbook L';-inkscape-font-specification:'Century Schoolbook L Bold';letter-spacing:-2.5px;fill:#008000"
         id="path4308" />
      <path
         style="font-style:normal;font-variant:normal;font-weight:bold;font-stretch:normal;font-size:50px;font-family:'Century Schoolbook L';-inkscape-font-specification:'Century Schoolbook L Bold';letter-spacing:-2.5px;fill:#008000"
         d="M 116.81445 19.722656 C 114.36445 19.722656 112.36523 21.721094 112.36523 24.121094 C 112.36523 26.521094 114.36484 28.572266 116.71484 28.572266 C 119.21484 28.572266 121.21484 26.621094 121.21484 24.121094 C 121.21484 21.721094 119.21445 19.722656 116.81445 19.722656 z M 81.111328 32.171875 C 77.261328 32.171875 74.610547 34.372656 72.810547 38.972656 L 72.810547 32.921875 L 61.662109 33.271484 L 61.662109 35.822266 L 62.412109 35.822266 C 65.462109 35.822266 65.611328 36.021875 65.611328 40.671875 L 65.611328 49.371094 L 65.611328 51.671875 C 65.611328 53.721875 65.061328 54.021484 61.861328 54.021484 L 61.662109 54.021484 L 61.662109 56.572266 L 78.361328 56.572266 L 78.361328 54.021484 L 77.261719 54.021484 C 74.061719 54.021484 73.511719 53.721875 73.511719 51.671875 L 73.511719 49.371094 L 73.511719 48.371094 C 73.511719 44.871094 74.361328 40.922656 75.611328 38.722656 C 76.661328 36.872656 77.712109 35.972656 79.412109 35.472656 C 78.762109 36.372656 78.560547 36.922266 78.560547 37.822266 C 78.560547 39.972266 80.160547 41.521484 82.310547 41.521484 C 84.760547 41.521484 86.611328 39.672656 86.611328 37.222656 C 86.611328 36.734987 86.541392 36.270626 86.417969 35.832031 C 88.925003 35.873467 89.087891 36.325971 89.087891 40.671875 L 89.087891 49.371094 L 89.087891 51.671875 C 89.087891 53.721875 88.53789 54.021484 85.337891 54.021484 L 85.138672 54.021484 L 85.138672 56.572266 L 101.83789 56.572266 L 101.83789 54.021484 L 100.73828 54.021484 C 97.538281 54.021484 96.988281 53.721875 96.988281 51.671875 L 96.988281 49.371094 L 96.988281 48.371094 C 96.988281 44.871094 97.837891 40.922656 99.087891 38.722656 C 100.13789 36.872656 101.18867 35.972656 102.88867 35.472656 C 102.23867 36.372656 102.03711 36.922266 102.03711 37.822266 C 102.03711 39.972266 103.63711 41.521484 105.78711 41.521484 C 108.23711 41.521484 110.08789 39.672656 110.08789 37.222656 C 110.08789 36.732115 110.01742 36.265065 109.89258 35.824219 C 112.8581 35.829353 113.01367 36.11436 113.01367 40.521484 L 113.01367 49.371094 L 113.01367 51.671875 C 113.01367 53.671875 112.46445 54.021484 109.31445 54.021484 L 109.11523 54.021484 L 109.11523 56.572266 L 124.76367 56.572266 L 124.76367 54.021484 L 124.46484 54.021484 C 121.41484 54.021484 120.86523 53.672656 120.86523 51.722656 L 120.86523 49.371094 L 120.86523 32.921875 L 109.11523 33.271484 L 109.11523 34.253906 C 108.15052 32.973453 106.53832 32.171875 104.58789 32.171875 C 100.73789 32.171875 98.087109 34.372656 96.287109 38.972656 L 96.287109 32.921875 L 85.138672 33.271484 L 85.138672 33.689453 C 84.159516 32.743188 82.756455 32.171875 81.111328 32.171875 z "
         transform="translate(-504.44265,405.53649)"
         id="path4310" />
      <path
         d="m -361.72112,438.45828 -6.5,0 0,-9.9 -3.15,0 c -0.8,6.4 -3.5,9.75 -8.25,10.3 l 0,2.6 3.55,0 0,11.95 c 0,4.1 0.2,5.3 1.05,6.7 1.05,1.75 3.2,2.75 6.05,2.75 2.85,0 5.1,-0.95 6.45,-2.75 1.25,-1.6 2,-4 2,-6.15 0,-0.25 0,-0.65 -0.05,-1.15 l -2.65,0 c 0.05,3.7 -1.1,5.8 -3.15,5.8 -1.45,0 -1.85,-0.9 -1.85,-4.3 l 0,-12.85 6.5,0 0,-3 z"
         style="font-style:normal;font-variant:normal;font-weight:bold;font-stretch:normal;font-size:50px;font-family:'Century Schoolbook L';-inkscape-font-specification:'Century Schoolbook L Bold';letter-spacing:-2.5px;fill:#008000"
         id="path4316" />
      <path
         d="m -346.58206,437.70828 c -7.95,0 -13.85,5.4 -13.85,12.6 0,7.25 5.75,12.55 13.65,12.55 7.9,0 13.75,-5.3 13.75,-12.45 0,-7.1 -5.95,-12.7 -13.55,-12.7 z m -0.1,2.6 c 1.75,0 3.35,1.2 4,2.95 0.6,1.65 1,4.5 1,7.1 0,6.35 -1.85,9.9 -5.05,9.9 -3.35,0 -5.05,-3.35 -5.05,-9.95 0,-6.6 1.75,-10 5.1,-10 z"
         style="font-style:normal;font-variant:normal;font-weight:bold;font-stretch:normal;font-size:50px;font-family:'Century Schoolbook L';-inkscape-font-specification:'Century Schoolbook L Bold';letter-spacing:-2.5px;fill:#008000"
         id="path4318" />
      <path
         style="font-style:normal;font-variant:normal;font-weight:bold;font-stretch:normal;font-size:50px;font-family:'Century Schoolbook L';-inkscape-font-specification:'Century Schoolbook L Bold';letter-spacing:-2.5px;fill:#008000"
         d="M 190.87695 32.171875 C 187.02695 32.171875 184.37617 34.372656 182.57617 38.972656 L 182.57617 32.921875 L 171.42773 33.271484 L 171.42773 35.822266 L 172.17773 35.822266 C 175.22773 35.822266 175.37695 36.021875 175.37695 40.671875 L 175.37695 49.371094 L 175.37695 51.671875 C 175.37695 53.721875 174.82695 54.021484 171.62695 54.021484 L 171.42773 54.021484 L 171.42773 56.572266 L 188.12695 56.572266 L 188.12695 54.021484 L 187.02734 54.021484 C 183.82734 54.021484 183.27734 53.721875 183.27734 51.671875 L 183.27734 49.371094 L 183.27734 48.371094 C 183.27734 44.871094 184.12695 40.922656 185.37695 38.722656 C 186.42695 36.872656 187.47773 35.972656 189.17773 35.472656 C 188.52773 36.372656 188.32617 36.922266 188.32617 37.822266 C 188.32617 39.972266 189.92617 41.521484 192.07617 41.521484 C 194.52617 41.521484 196.37695 39.672656 196.37695 37.222656 C 196.37695 36.669107 196.29265 36.143458 196.13477 35.654297 C 196.85762 35.880897 197.22169 36.374961 197.75391 37.472656 L 208.00391 57.371094 L 206.85352 59.521484 C 205.55352 62.071484 204.00352 63.472656 202.60352 63.472656 C 202.56009 63.475011 202.04388 63.476209 201.97656 63.478516 C 201.96593 63.478129 201.95601 63.474609 201.94531 63.474609 L 11.435547 63.474609 C 11.591746 63.022227 11.701172 62.546596 11.701172 62.035156 C 11.701172 59.635156 9.7007811 57.636719 7.3007812 57.636719 C 4.8507814 57.636719 2.8515625 59.635156 2.8515625 62.035156 C 2.8515625 64.126461 4.3709883 65.949519 6.3164062 66.384766 C 6.4551159 66.464374 6.6064412 66.509766 6.7675781 66.509766 L 196.41016 66.509766 C 197.77653 66.532991 200.35795 66.559215 200.95508 66.580078 C 205.15508 66.580078 207.90352 64.321875 210.60352 58.421875 L 219.35352 39.572266 C 220.80352 36.522266 221.8543 35.572656 223.9043 35.472656 L 223.9043 32.921875 L 212.6543 32.921875 L 212.6543 35.472656 L 213.20312 35.472656 C 215.35312 35.472656 216.55273 36.172656 216.55273 37.472656 C 216.55273 38.022656 216.35352 38.921484 216.10352 39.521484 L 211.95312 48.671875 L 206.6543 37.871094 C 206.4043 37.371094 206.25391 36.871484 206.25391 36.521484 C 206.25391 35.821484 206.80391 35.472656 208.00391 35.472656 L 208.9043 35.472656 L 208.9043 32.921875 L 194.70312 32.921875 L 194.70312 33.505859 C 193.73676 32.670392 192.41252 32.171876 190.87695 32.171875 z "
         transform="translate(-504.44265,405.53649)"
         id="path4320" />
    </g>
  </g>
</svg>
